<svg height="12" viewBox="0 0 12 12" width="12" xmlns="http://www.w3.org/2000/svg"><g><path d="m11.864 3.017c-.081-.09698734-.200639-.15333111-.327-.154h-2.312v1.227c0 .563-.484 1.022-1.08 1.022-.594 0-1.078-.458-1.078-1.022v-1.227h-2.158v1.227c0 .563-.485 1.022-1.08 1.022s-1.078-.458-1.078-1.022v-1.227h-2.313c-.12633007.00080516-.24591464.05712328-.327.154-.08375074.09937604-.12282115.22888719-.108.358l.776 7.134c.015.806.642 1.455 1.411 1.455h7.595c.77 0 1.396-.649 1.411-1.455l.776-7.134c.0143427-.12906951-.0246719-.25839542-.108-.358z"/><path d="m3.829 4.499c.239 0 .433-.184.433-.409v-2.25c0-.632.672-1.022 1.295-1.022h1.079c.655 0 1.078.401 1.078 1.022v2.25c0 .225.194.409.431.409.239 0 .433-.184.433-.409v-2.25c-.001-1.067-.817-1.84-1.942-1.84h-1.079c-1.19 0-2.159.826-2.159 1.84v2.25c0 .225.194.409.431.409z"/></g></svg>