<svg height="188" viewBox="0 0 156 188" width="156" xmlns="http://www.w3.org/2000/svg"><g fill="#fff"><circle cx="141.25" cy="68.877" r="14.75"/><path d="m89.113 139.544-7.074 17.875-22.824 14.917a7.16 7.16 0 0 0 -3.634 6.23 7.167 7.167 0 0 0 7.167 7.167 7.121 7.121 0 0 0 4.121-1.31c3.761-2.371 22.351-14.084 25.495-15.88 3.5-2 4.125-5.125 4.125-5.125l4.875-16-5.75-2.625c-5.75-2.625-6.501-5.249-6.501-5.249z"/><path d="m139.321 141.462s-1.158-3.834-4.579-5.167-18.087-7.75-18.087-7.75l15.416-25.584s3.834-9-.333-13.417-13.75-9.75-13.75-9.75h-7.521l15.799-26.801c3.354-5.686 1.443-13.081-4.242-16.432l-49.391-29.114c-5.686-3.352-13.079-1.442-16.431 4.244l-47.058 79.828c-3.351 5.685-1.442 13.08 4.244 16.432l49.39 29.113c5.686 3.352 13.081 1.441 16.432-4.242l22.934-38.903h8.096l-14.75 26.209s-5.134 9.214-.334 14.25c4.209 4.416 12.667 6.916 12.667 6.916l17.25 6.501 5.101 31.291.009-.001c.549 3.413 3.499 6.023 7.067 6.023a7.166 7.166 0 0 0 7.166-7.167c0-.189-.014-.375-.028-.56l.028-.004zm-121.363-41.264c-1.401-.826-1.887-2.708-1.061-4.108l47.059-79.829c.826-1.401 2.707-1.888 4.107-1.062l11.521 6.792-50.104 84.998zm53.498 28.054c-.826 1.4-2.707 1.887-4.107 1.061l-30.116-17.754 50.107-84.996 30.113 17.753c1.402.826 1.887 2.707 1.062 4.107l-18.493 31.372h-8.783l-19.916 14.427a7.155 7.155 0 0 0 -1.23.891l-.031.022.002.003a7.142 7.142 0 0 0 -2.358 5.304 7.167 7.167 0 0 0 7.167 7.167 7.121 7.121 0 0 0 4.149-1.331l.002.003.071-.058c.182-.133.356-.273.524-.423l9.66-7.784z"/></g><path d="m49.219 5.943-47.058 79.829c-3.351 5.685-1.442 13.08 4.244 16.432l49.39 29.113c5.686 3.352 13.081 1.441 16.432-4.242l47.057-79.829c3.354-5.686 1.443-13.081-4.242-16.432l-49.392-29.114c-5.685-3.352-13.079-1.442-16.431 4.243zm-39.305 84.4 47.059-79.829c.826-1.401 2.707-1.888 4.107-1.062l11.521 6.792-50.105 84.998-11.522-6.791c-1.4-.826-1.886-2.708-1.06-4.108zm101.617-47.667-47.059 79.829c-.826 1.4-2.707 1.887-4.107 1.061l-30.116-17.754 50.106-84.996 30.113 17.753c1.403.825 1.887 2.706 1.063 4.107z" fill="#f0c42e"/><g fill="#3a3a3a"><circle cx="135.25" cy="63.083" r="14.75"/><path d="m81.875 133.75-7.074 17.875-22.825 14.917a7.16 7.16 0 0 0 -3.634 6.23 7.167 7.167 0 0 0 7.167 7.167 7.121 7.121 0 0 0 4.121-1.31c3.761-2.371 22.351-14.084 25.495-15.88 3.5-2 4.125-5.125 4.125-5.125l4.875-16-5.75-2.625c-5.75-2.625-6.5-5.249-6.5-5.249zm50.208 1.918s-1.158-3.834-4.579-5.167-18.087-7.75-18.087-7.75l15.416-25.584s3.834-9-.333-13.417-13.75-9.75-13.75-9.75h-26.75l-19.915 14.427a7.208 7.208 0 0 0 -1.23.891l-.031.022.002.003a7.14 7.14 0 0 0 -2.358 5.303 7.167 7.167 0 0 0 7.167 7.167 7.121 7.121 0 0 0 4.149-1.331l.002.003.071-.058c.182-.133.357-.273.525-.423l14.743-11.881h15.875l-14.75 26.209s-5.134 9.214-.334 14.25c4.209 4.416 12.667 6.916 12.667 6.916l17.25 6.501 5.101 31.291.009-.001c.549 3.413 3.499 6.023 7.067 6.023a7.166 7.166 0 0 0 7.166-7.167c0-.189-.014-.375-.028-.56l.028-.004z"/></g></svg>