<svg height="35" viewBox="0 0 27 35" width="27" xmlns="http://www.w3.org/2000/svg"><path d="m13.62.017-.148-.017-13.472 1.412v24.661l13.473 8.017 13.43-7.99.042-.025v-24.663zm11.399 12.11-11.524-6.793-.001-.104-.087.05-.088-.056v.109l-11.394 6.785v-8.971l11.548-1.212 11.547 1.212v8.98zm-11.614-5.34 11.518 6.713-4.479 2.64-7.093-4.221-.014 1.415 5.904 3.513-.86.507-5.03-2.992-.014 1.415 3.827 2.275-.782.523-3.031-1.787-.014 1.413 1.853 1.091-1.8 1.081-11.356-6.751zm-11.48 8.34 11.411 6.791.016 1.044-7.942-4.728-.015 1.416 7.979 4.795.018 1.076-7.973-4.74-.013 1.414 8.021 4.822.046.025 8.143-4.872-.011-5.177 3.415-2.036v10.021l-11.548 6.872-11.547-6.871z" fill="#ffc600"/></svg>